<?xml version="1.0" encoding="utf-8"?>
<!-- Generator: Adobe Illustrator 19.1.0, SVG Export Plug-In . SVG Version: 6.00 Build 0)  -->
<svg version="1.1" id="Layer_1" xmlns="http://www.w3.org/2000/svg" xmlns:xlink="http://www.w3.org/1999/xlink" x="0px" y="0px"
	 viewBox="-280.8 373 48 48" style="enable-background:new -280.8 373 48 48;" xml:space="preserve">
<style type="text/css">
	.st0{fill:#EF004A;}
	.st1{fill:#FFFFFF;}
</style>
<g>
	<circle class="st0" cx="-256.8" cy="397" r="24"/>
	<g>
		<path class="st1" d="M-243.7,388.1h-26.2c-0.7,0-1.2,0.5-1.2,1.2v4.3c0,0.7,0.5,1.2,1.2,1.2h26.2c0.7,0,1.2-0.5,1.2-1.2v-4.3
			C-242.5,388.6-243,388.1-243.7,388.1z M-266.5,393.3c-1,0-1.9-0.8-1.9-1.9c0-1,0.8-1.9,1.9-1.9c1,0,1.9,0.8,1.9,1.9
			S-265.5,393.3-266.5,393.3z"/>
		<path class="st1" d="M-243.7,396.6h-26.2c-0.7,0-1.2,0.5-1.2,1.2v4.3c0,0.7,0.5,1.2,1.2,1.2h26.2c0.7,0,1.2-0.5,1.2-1.2v-4.3
			C-242.5,397.1-243,396.6-243.7,396.6z M-266.5,401.8c-1,0-1.9-0.8-1.9-1.9c0-1,0.8-1.9,1.9-1.9c1,0,1.9,0.8,1.9,1.9
			S-265.5,401.8-266.5,401.8z"/>
		<path class="st1" d="M-243.7,405.1h-26.2c-0.7,0-1.2,0.5-1.2,1.2v4.3c0,0.7,0.5,1.2,1.2,1.2h26.2c0.7,0,1.2-0.5,1.2-1.2v-4.3
			C-242.5,405.6-243,405.1-243.7,405.1z M-266.5,410.3c-1,0-1.9-0.8-1.9-1.9c0-1,0.8-1.9,1.9-1.9c1,0,1.9,0.8,1.9,1.9
			S-265.5,410.3-266.5,410.3z"/>
		<path class="st1" d="M-247.8,381.1c-0.2-0.2-0.5-0.4-0.9-0.4h-16c-0.3,0-0.6,0.1-0.9,0.4l-5.6,5.6h28.6L-247.8,381.1z"/>
	</g>
</g>
</svg>
